<svg id="Calque_2" data-name="Calque 2" xmlns="http://www.w3.org/2000/svg" viewBox="0 0 358.48 424.48"><defs><style>.cls-1{fill:#fff;}.cls-2{fill:none;stroke:#fff;stroke-miterlimit:10;stroke-width:13px;}</style></defs><title>Plan de travail 1</title><g id="Calque_1" data-name="Calque 1"><path class="cls-1" d="M317.9,9.4s-235,1-272,0-33,38-33,38v331c-.13,43,14,33.53,46,35,22-.59,201,0,201,0l85-96V48.4C344.9,16.4,317.9,9.4,317.9,9.4Zm-56.5,370V336.9s-1.5-10.5,9.5-11,40.5,0,40.5,0Zm65.5-74-51.5.5s-34.5-4-34.5,32v55l-197,2.5s-11.5,2-11.5-8V43.4S30.9,29.9,45.9,29.9h265s16,0,16,16Z"/><circle class="cls-2" cx="103.18" cy="98.82" r="21.58"/><rect class="cls-2" x="68.4" y="120.4" width="69" height="35" rx="16.9" ry="16.9"/><rect class="cls-1" x="162.9" y="95.9" width="133.5" height="19" rx="9.5" ry="9.5"/><rect class="cls-1" x="161.4" y="152.9" width="133.5" height="19" rx="9.5" ry="9.5"/><rect class="cls-1" x="60.4" y="206.9" width="234.5" height="19" rx="9.5" ry="9.5"/><rect class="cls-1" x="60.4" y="264.9" width="165.5" height="19" rx="7.98" ry="7.98"/></g></svg>